<svg class="svg-icon" style="width: 1em; height: 1em;vertical-align: middle;fill: currentColor;overflow: hidden;" viewBox="0 0 1024 1024" version="1.1" xmlns="http://www.w3.org/2000/svg"><path d="M928 1024 96 1024c-17.664 0-32-14.304-32-32L64 480c0-17.696 14.336-32 32-32l96 0 0-128C192 143.264 335.264 0 512 0s320 143.264 320 320l0 128 96 0c17.696 0 32 14.304 32 32l0 512C960 1009.696 945.696 1024 928 1024zM704 304C704 206.784 618.016 128 512 128s-192 78.784-192 176L320 448l384 0L704 304z"  /></svg>